inDegrees=yes
name=ik_rai_1
DataType=double
version=3
OpenSimVersion=4.5
endheader
time	gndpitch	gndroll	gndyaw	spine_tx	spine_ty	spine_tz	pitch2	roll2	yaw2	aux7jnt_r3	aux7jnt_r1	aux7jnt_r2	aux6jnt_r3	aux6jnt_r1	aux6jnt_r2	aux5jnt_r3	aux5jnt_r1	aux5jnt_r2	aux4jnt_r3	aux4jnt_r1	aux4jnt_r2	aux3jnt_r3	aux3jnt_r1	aux3jnt_r2	pitch1	roll1	yaw1	aux1jnt_r3	aux1jnt_r1	aux1jnt_r2
30.12499999999936	4.21296440140691e-09	8.002416233845703e-10	4.440363815649541e-10	-3.97872216927308e-17	8.44526185968539e-17	-7.30666612219483e-19	-0.5758408562867254	0.3471464898517336	-0.09235853185166616	-6.169743369794483	2.724931544366254	-0.9948496452214939	-7.258503819775068	3.122736677648811	-1.158893324263766	-7.258503819775068	4.296243017197851	-1.158893324263766	-5.443877864831301	4.296243017197851	-1.158893324263766	-3.629251909887534	3.898449280057417	-0.4974248226107469	-0.2790945579178326	-0.1041976364351332	-0.6619744407539124	-8.89095838326892	-2.98504240148585	-4.210053958273243
30.14999999999936	4.21296440140691e-09	8.002416233845703e-10	4.440363815649541e-10	-3.97872216927308e-17	8.44526185968539e-17	-7.30666612219483e-19	-0.5758402114177377	0.3466786256760402	-0.09144410194053888	-6.169736460461603	2.721259037548251	-0.9849997672034465	-7.258495691168075	3.11852803183413	-1.147419270938465	-7.258495691168075	4.290452786685426	-1.147419270938465	-5.443871768376056	4.290452786685426	-1.147419270938465	-3.629247845584037	3.893195173182604	-0.4924998836017233	-0.2790936414506122	-0.1041929204310139	-0.6619657531068875	-8.890929187888053	-2.984907297919755	-4.209998706196285
30.17499999999935	4.21296440140691e-09	8.002416233845703e-10	4.440363815649541e-10	-3.97872216927308e-17	8.44526185968539e-17	-7.30666612219483e-19	-0.5758394530395917	0.3462079950262377	-0.09055134096190443	-6.169728334955246	2.717564815250511	-0.9753832983720804	-7.258486131772261	3.114294500357572	-1.136217114325966	-7.258486131772261	4.28462831862367	-1.136217114325966	-5.443864598829196	4.28462831862367	-1.136217114325966	-3.629243065886131	3.887909998849779	-0.4876916491860402	-0.2790925547049324	-0.1041882698459004	-0.6619518498683654	-8.890894568042066	-2.984774068470115	-4.209910283772745
30.19999999999935	4.21296440140691e-09	8.002416233845703e-10	4.440363815649541e-10	-3.97872216927308e-17	8.44526185968539e-17	-7.30666612219483e-19	-0.5758386313084177	0.3457514152679655	-0.08954181123393976	-6.169719530664258	2.713980885635189	-0.9645090426691063	-7.258475773808252	3.110187362883599	-1.123549770671531	-7.258475773808252	4.278977742697902	-1.123549770671531	-5.443856830356191	4.278977742697902	-1.123549770671531	-3.629237886904126	3.882782615794039	-0.4822545213345532	-0.2790913714464393	-0.104182873382207	-0.6619394031728079	-8.890856873641656	-2.984619471173151	-4.209831124734762
30.22499999999935	4.21296440140691e-09	8.002416233845703e-10	4.440363815649541e-10	-3.97872216927308e-17	8.44526185968539e-17	-7.30666612219483e-19	-0.575837717908632	0.3453830741260278	-0.08854556223100396	-6.169709744206402	2.711089586353487	-0.9537778416933829	-7.258464260356644	3.106873970908048	-1.111049070458357	-7.258464260356644	4.274419197227163	-1.111049070458357	-5.443848195267483	4.274419197227163	-1.111049070458357	-3.629232130178322	3.878646150925231	-0.4768889208466914	-0.2790900420774187	-0.1041775913148363	-0.6619227500050291	-8.890814524680332	-2.984468151089434	-4.20972521319104
30.24999999999935	4.21296440140691e-09	8.002416233845703e-10	4.440363815649541e-10	-3.97872216927308e-17	8.44526185968539e-17	-7.30666612219483e-19	-0.5758367032110864	0.3450301861886378	-0.08751492353454646	-6.169698872411901	2.708319587231121	-0.9426762085148831	-7.258451470041524	3.103699587362762	-1.098116856388837	-7.258451470041524	4.270051898748891	-1.098116856388837	-5.443838602531143	4.270051898748891	-1.098116856388837	-3.629225735020762	3.874683225285257	-0.4713381042574415	-0.2790885490500472	-0.1041712646163553	-0.6619059271061255	-8.89076696214696	-2.984286904528821	-4.209618222183897
30.27499999999935	4.21296440140691e-09	8.002416233845703e-10	4.440363815649541e-10	-3.97872216927308e-17	8.44526185968539e-17	-7.30666612219483e-19	-0.5758356414507989	0.3447269037177432	-0.08652365553577732	-6.169687496372109	2.70593896695711	-0.9319986609497168	-7.258438086498105	3.100971426994631	-1.085678656654623	-7.258438086498105	4.266298511530791	-1.085678656654623	-5.443828564873577	4.266298511530791	-1.085678656654623	-3.629219043249052	3.871277368205105	-0.4659993304748584	-0.279086979866915	-0.1041650583847199	-0.661886870033873	-8.890716973562341	-2.98410910908913	-4.209497022183519
30.29999999999935	4.21296440140691e-09	8.002416233845703e-10	4.440363815649541e-10	-3.97872216927308e-17	8.44526185968539e-17	-7.30666612219483e-19	-0.5758345221353451	0.3445132960483549	-0.08558050764319337	-6.169675503667834	2.70426225037362	-0.9218394441722643	-7.258423977468833	3.099049931247657	-1.073844256793606	-7.258423977468833	4.263654928821884	-1.073844256793606	-5.443817983101626	4.263654928821884	-1.073844256793606	-3.629211988734417	3.868878557647355	-0.4609197220861321	-0.2790853252610033	-0.1041585990380484	-0.6618668691480482	-8.890664263712274	-2.983924062437784	-4.209369819676365
30.32499999999935	4.21296440140691e-09	8.002416233845703e-10	4.440363815649541e-10	-3.97872216927308e-17	8.44526185968539e-17	-7.30666612219483e-19	-0.575833483315237	0.3443700910247539	-0.0846862030301032	-6.16966437341647	2.703138160407195	-0.9122063479199148	-7.258410883087564	3.097761738531631	-1.062622731015857	-7.258410883087564	4.261882640751406	-1.062622731015857	-5.443808162315671	4.261882640751406	-1.062622731015857	-3.629205441543782	3.867270367625338	-0.4561031739599574	-0.2790837863389186	-0.1041524891744003	-0.6618481204095993	-8.890615239136837	-2.983749027737569	-4.209250580630776
30.34999999999934	4.21296440140691e-09	8.002416233845703e-10	4.440363815649541e-10	-3.97872216927308e-17	8.44526185968539e-17	-7.30666612219483e-19	-0.5758323794315996	0.3442797759755281	-0.0838201831781427	-6.169652546053619	2.702429231082653	-0.902877923948631	-7.258396968577138	3.096949314598197	-1.051756115826167	-7.258396968577138	4.260764912613777	-1.051756115826167	-5.443797726432853	4.260764912613777	-1.051756115826167	-3.629198484288569	3.866256131131736	-0.4514389619743155	-0.2790821499761646	-0.1041459733143707	-0.661828937185958	-8.890563110448793	-2.983562362097769	-4.209128578327286
30.37499999999934	4.21296440140691e-09	8.002416233845703e-10	4.440363815649541e-10	-3.97872216927308e-17	8.44526185968539e-17	-7.30666612219483e-19	-0.5758312714952606	0.3442499597634578	-0.08299369822867483	-6.169640675268823	2.702195188281767	-0.8939753543400141	-7.258383002982199	3.096681104543536	-1.04138557537538	-7.258383002982199	4.260395910775507	-1.04138557537538	-5.443787252236649	4.260395910775507	-1.04138557537538	-3.629191501491099	3.865921295568433	-0.446987677170007	-0.2790804912327499	-0.1041395965389534	-0.6618094422745371	-8.890510268792621	-2.983379680938613	-4.209004593738245
30.39999999999934	4.21296440140691e-09	8.002416233845703e-10	4.440363815649541e-10	-3.97872216927308e-17	8.44526185968539e-17	-7.30666612219483e-19	-0.5758300851600453	0.3441476454596328	-0.08218035619446121	-6.169627964493357	2.70139207062947	-0.8852143550261589	-7.258368049165363	3.095760741991869	-1.031179949160933	-7.258368049165363	4.25912968131268	-1.031179949160933	-5.443776036874022	4.25912968131268	-1.031179949160933	-3.629184024582682	3.864772307646198	-0.4426071775130794	-0.2790787154589561	-0.1041325177018538	-0.661789602973554	-8.890453698965471	-2.983176887193775	-4.208878418885423
30.42499999999934	4.21296440140691e-09	8.002416233845703e-10	4.440363815649541e-10	-3.97872216927308e-17	8.44526185968539e-17	-7.30666612219483e-19	-0.5758289293179075	0.3440385774608664	-0.08139802119467508	-6.169615580430487	2.700535939748108	-0.8767873512466763	-7.258353479715345	3.094779626958122	-1.021363391985184	-7.258353479715345	4.257779868937218	-1.021363391985184	-5.443765109786511	4.257779868937218	-1.021363391985184	-3.629176739857673	3.863547475842625	-0.4383936756233381	-0.2790769863467895	-0.1041258742132972	-0.6617692861779012	-8.890398615611543	-2.98298656526601	-4.208749207241148
30.44999999999934	4.21296440140691e-09	8.002416233845703e-10	4.440363815649541e-10	-3.97872216927308e-17	8.44526185968539e-17	-7.30666612219483e-19	-0.5758277717071378	0.343866964741036	-0.08061657817558215	-6.16960317741793	2.699188863146869	-0.8683699555310961	-7.258338887971634	3.093235894412257	-1.011558027175209	-7.258338887971634	4.255656010650332	-1.011558027175209	-5.443754165978725	4.255656010650332	-1.011558027175209	-3.629169443985817	3.861620267866655	-0.434184977765548	-0.2790752608608826	-0.1041190343614587	-0.6617497049707463	-8.890343647777334	-2.982790617944593	-4.208624673824728
30.47499999999934	4.21296440140691e-09	8.002416233845703e-10	4.440363815649541e-10	-3.97872216927308e-17	8.44526185968539e-17	-7.30666612219483e-19	-0.5758265845304439	0.3436574731536938	-0.07983155304291506	-6.169590457626594	2.697544455810728	-0.8599139747021881	-7.258323923547916	3.091351424649273	-1.001707714839275	-7.258323923547916	4.253063368075536	-1.001707714839275	-5.443742942660937	4.253063368075536	-1.001707714839275	-3.629161961773958	3.859267680841506	-0.4299569873510941	-0.2790734828941465	-0.1041120050271352	-0.6617291503961552	-8.890287008090855	-2.982589242349831	-4.208493949943576
30.49999999999934	4.21296440140691e-09	8.002416233845703e-10	4.440363815649541e-10	-3.97872216927308e-17	8.44526185968539e-17	-7.30666612219483e-19	-0.5758253031601325	0.3433305591511991	-0.07896207756840372	-6.169576728614667	2.694978339477323	-0.8505483281289448	-7.25830777180877	3.088410688170957	-0.9907977393034947	-7.25830777180877	4.249017519877443	-0.9907977393034947	-5.443730828856578	4.249017519877443	-0.9907977393034947	-3.629153885904385	3.855596442056372	-0.4252741640644724	-0.2790715569075618	-0.1041037321771973	-0.6617086272881089	-8.890225653019302	-2.982352242656833	-4.208363426184733
